<?xml version="1.0" encoding="iso-8859-1"?>
<!-- Uploaded to: SVG Repo, www.svgrepo.com, Generator: SVG Repo Mixer Tools -->
<!DOCTYPE svg PUBLIC "-//W3C//DTD SVG 1.1//EN" "http://www.w3.org/Graphics/SVG/1.1/DTD/svg11.dtd">
<svg fill="#000000" version="1.1" id="Capa_1" xmlns="http://www.w3.org/2000/svg" xmlns:xlink="http://www.w3.org/1999/xlink" 
	 width="800px" height="800px" viewBox="0 0 42.596 42.595"
	 xml:space="preserve">
<g>
	<path d="M42.472,16.373c-1.402-3.424-11.652,0.046-14.646-2.128c-2.991-2.175-2.858-13.543-6.548-13.268
		c-3.689,0.274-3.557,11.094-6.549,13.268c-2.992,2.175-13.5-1.389-14.643,2.128c-1.143,3.519,9.452,6.81,10.596,10.33
		c1.144,3.516-5.493,12.408-2.501,14.584c2.994,2.173,9.397-6.887,13.097-6.887c3.7,0,10.103,9.06,13.096,6.887
		c2.993-2.176-3.643-11.068-2.5-14.584C33.018,23.183,43.869,19.797,42.472,16.373z M36.136,17.268
		c0.568-0.213,1.199,0.078,1.411,0.646c0.209,0.568-0.079,1.199-0.647,1.411c-0.564,0.209-1.197-0.079-1.409-0.646
		C35.278,18.11,35.569,17.478,36.136,17.268z M21.298,6.466c0.606,0,1.098,0.491,1.098,1.097s-0.493,1.096-1.098,1.096
		s-1.097-0.491-1.097-1.097S20.692,6.466,21.298,6.466z M21.298,10.633c0.97,0,1.755,0.786,1.755,1.755
		c0,0.968-0.785,1.754-1.755,1.754c-0.969,0-1.755-0.786-1.755-1.754C19.543,11.42,20.328,10.633,21.298,10.633z M6.896,18.677
		c-0.211,0.567-0.843,0.855-1.408,0.646c-0.569-0.211-0.858-0.842-0.649-1.411c0.212-0.568,0.844-0.858,1.412-0.646
		C6.817,17.478,7.108,18.11,6.896,18.677z M9.782,21.621c-0.907-0.337-1.373-1.349-1.034-2.256c0.336-0.91,1.347-1.373,2.255-1.036
		c0.909,0.336,1.372,1.346,1.035,2.255C11.7,21.494,10.69,21.958,9.782,21.621z M12.488,36.86c-0.4,0.455-1.093,0.505-1.55,0.107
		c-0.457-0.398-0.504-1.092-0.105-1.549c0.399-0.455,1.092-0.503,1.548-0.104C12.837,35.71,12.882,36.405,12.488,36.86z
		 M16.153,33.654c-0.636,0.73-1.746,0.81-2.475,0.171c-0.732-0.637-0.808-1.742-0.171-2.474s1.746-0.807,2.476-0.172
		C16.714,31.818,16.791,32.926,16.153,33.654z M24.755,28.011c-0.937,0.681-2.235-0.631-3.453-0.631
		c-1.216,0-2.516,1.312-3.452,0.631c-0.936-0.681-0.092-2.321-0.469-3.479c-0.375-1.153-2.016-1.98-1.661-3.083
		c0.345-1.067,2.152-0.795,3.16-1.527c0.981-0.712,1.267-2.528,2.42-2.526c1.15,0.001,1.437,1.808,2.423,2.526
		c1.005,0.729,2.809,0.462,3.151,1.527c0.353,1.097-1.273,1.924-1.651,3.084C24.847,25.69,25.692,27.331,24.755,28.011z
		 M28.822,33.825c-0.729,0.639-1.837,0.561-2.475-0.171c-0.637-0.729-0.562-1.837,0.172-2.475c0.729-0.635,1.837-0.562,2.477,0.172
		C29.631,32.083,29.555,33.189,28.822,33.825z M31.564,36.967c-0.457,0.396-1.151,0.348-1.55-0.107
		c-0.395-0.454-0.35-1.148,0.105-1.546c0.457-0.397,1.151-0.351,1.549,0.104C32.067,35.875,32.021,36.569,31.564,36.967z
		 M30.349,20.585c-0.339-0.909,0.125-1.919,1.034-2.255c0.907-0.337,1.92,0.126,2.255,1.036c0.34,0.907-0.127,1.919-1.031,2.256
		C31.696,21.958,30.688,21.494,30.349,20.585z"/>
</g>
</svg>